<?xml version="1.0" standalone="no"?><!DOCTYPE svg PUBLIC "-//W3C//DTD SVG 1.1//EN" "http://www.w3.org/Graphics/SVG/1.1/DTD/svg11.dtd"><svg t="1609843703271" class="icon" viewBox="0 0 1024 1024" version="1.1" xmlns="http://www.w3.org/2000/svg" p-id="1853" xmlns:xlink="http://www.w3.org/1999/xlink" width="200" height="200"><defs><style type="text/css"></style></defs><path d="M896 896h-170.666667v-288c0-45.226667-50.773333-82.773333-96-82.773333S554.666667 562.773333 554.666667 608V896H384V384h170.666667v85.333333c28.16-45.653333 100.693333-75.093333 149.333333-75.093333 106.666667 0 192 87.04 192 192.426667V896M298.666667 896H128V384h170.666667v512M213.333333 128a85.333333 85.333333 0 0 1 85.333334 85.333333 85.333333 85.333333 0 0 1-85.333334 85.333334 85.333333 85.333333 0 0 1-85.333333-85.333334 85.333333 85.333333 0 0 1 85.333333-85.333333z" fill="#8a8a8a" p-id="1854"></path></svg>