<?xml version="1.0" standalone="no"?><!DOCTYPE svg PUBLIC "-//W3C//DTD SVG 1.1//EN" "http://www.w3.org/Graphics/SVG/1.1/DTD/svg11.dtd"><svg t="1610603107931" class="icon" viewBox="0 0 1024 1024" version="1.1" xmlns="http://www.w3.org/2000/svg" p-id="9052" xmlns:xlink="http://www.w3.org/1999/xlink" width="200" height="200"><defs><style type="text/css"></style></defs><path d="M848.685 785.65c-10.506 24.514-38.521 40.522-61.033 53.029-29.517 16.009-59.532 25.514-93.051 25.514-46.526 0-88.549-19.011-131.072-34.519-30.517-11.007-60.033-24.514-87.548-41.523-85.047-52.528-187.603-155.085-240.132-240.132-17.01-27.515-30.517-57.031-41.523-87.548-15.509-42.523-34.519-84.546-34.519-131.072 0-33.519 9.505-63.535 25.514-93.051 12.507-22.512 28.516-50.528 53.029-61.033 16.509-7.504 51.528-15.509 69.538-15.509 3.502 0 7.004 0 10.506 1.501 10.506 3.502 21.512 28.015 26.515 38.021 16.009 28.516 31.518 57.532 48.026 85.547 8.004 13.007 23.013 29.016 23.013 44.524 0 30.517-90.55 75.041-90.55 102.056 0 13.508 12.507 31.017 19.511 43.024 50.528 91.05 113.563 154.085 204.612 204.612 12.007 7.004 29.517 19.511 43.024 19.511 27.014 0 71.539-90.55 102.056-90.55 15.508 0 31.517 15.008 44.524 23.013 28.015 16.509 57.031 32.018 85.547 48.026 10.005 5.003 34.519 16.009 38.021 26.515 1.501 3.502 1.501 7.004 1.501 10.506C864.193 734.122 856.189 769.142 848.685 785.65z" p-id="9053" fill="#1296db"></path></svg>